<svg xmlns="http://www.w3.org/2000/svg" width="20" height="18" viewBox="0 0 20 18"><path fill="#121329" d="M17.88 6.18V6.1l-1-4.36A2.2 2.2 0 0 0 14.73.02H5.05A2.2 2.2 0 0 0 2.9 1.75L1.84 5.97c-.02.07-.72.28-.7.34-.66.37-1.1.96-1.1 1.77v4.39c0 .67.87 1.56 1.39 1.95 0 .02-.29.07-.29.11v1.94c0 .85.95 1.53 1.8 1.53h.44c.86 0 1.53-.68 1.53-1.53v-1.5h10.13v1.5c0 .85.68 1.53 1.53 1.53h.44c.86 0 1.94-.68 1.94-1.53v-1.94c.52-.4.87-1.34.87-2.06v-4.4c0-.9-1.17-1.54-1.94-1.9zM3.78 1.64c.13-.6.66-.72 1.27-.72h9.68c.61 0 1.16.13 1.27.72L16.94 6H2.84zm.26 14.8c0 .38-.29.66-.66.66h-.44c-.37 0-.92-.28-.92-.66v-1.6c.22.06.7.1.92.1h1.1zm13.98 0c0 .38-.64.66-1.01.66h-.44a.64.64 0 0 1-.65-.66v-1.5h1.31c.15 0 .66-.02.79-.04zm.93-4c0 .73-1.22 1.63-1.94 1.63H3.21c-.7 0-2.29-.9-2.29-1.63V8.06c0-.72 1.35-1.18 2.07-1.18h14.02c.72 0 1.94.46 1.94 1.18zM4.09 8.72c-.73 0-1.32.6-1.32 1.31a1.32 1.32 0 0 0 2.63 0c0-.72-.59-1.31-1.31-1.31zm0 1.75a.44.44 0 0 1-.44-.44c0-.24.2-.43.44-.43s.43.2.43.43c0 .24-.19.44-.43.44zm11.82-1.75a1.32 1.32 0 1 0 .01 2.63 1.32 1.32 0 0 0-.01-2.63zm0 1.75a.43.43 0 0 1-.43-.44c0-.24.19-.43.43-.43s.44.2.44.43c0 .24-.2.44-.44.44z"/></svg>