<svg xmlns="http://www.w3.org/2000/svg" width="20" height="33" viewBox="0 0 20 33"><path fill="#fff" d="M18.8 30.34l-5.8-6.3V11.98h1.67c.55 0 1-.01 1-.56s-.45-.43-1-.43H13a1 1 0 0 0-1 1v11.99c0 .25.1.49.26.67l5.7 6.36h-16l5.78-6.36a.99.99 0 0 0 .26-.67V11.99a1 1 0 0 0-1-1H5.33c-.55 0-1-.12-1 .43s.36.56.9.56H7v12.06l-5.89 6.3a.99.99 0 0 0-.17 1.07 1 1 0 0 0 .91.6h16.2a1 1 0 0 0 .92-.6.99.99 0 0 0-.17-1.07zM7 8A2 2 0 1 0 11 8 2 2 0 0 0 7 8zM15.5.98c1.4 0 2.52 1.13 2.52 2.51a2.52 2.52 0 0 1-5.04 0A2.52 2.52 0 0 1 15.5.98c1.4 0 0 0 0 0zm-3.51 2.53a3.53 3.53 0 0 0 7.05 0A3.52 3.52 0 0 0 15.51 0 3.52 3.52 0 0 0 12 3.51zM9 6.99a1.01 1.01 0 1 1 0 2.02 1.01 1.01 0 1 1 0-2.02z"/></svg>