<svg xmlns="http://www.w3.org/2000/svg" width="408" height="407" viewBox="0 0 408 407"><defs><clipPath id="a"><path fill="#fff" d="M756 1491v-407h408v407zm151.39-398.08c-107.48 28.79-171.26 139.24-142.46 246.69 28.8 107.45 139.27 171.22 246.74 142.43 107.48-28.79 171.26-139.24 142.46-246.69-28.8-107.45-139.27-171.22-246.74-142.43z"/></clipPath></defs><path fill="#fff" d="M398.13 151.35c28.8 107.45-34.98 217.9-142.46 246.69C148.2 426.83 37.73 363.06 8.93 255.61-19.87 148.16 43.91 37.71 151.4 8.92 258.86-19.87 369.33 43.9 398.13 151.35z"/><path fill="none" stroke="#ccdb2a" stroke-linecap="round" stroke-linejoin="round" stroke-miterlimit="50" stroke-width="4" d="M1154.13 1235.35c28.8 107.45-34.98 217.9-142.46 246.69-107.47 28.79-217.94-34.98-246.74-142.43-28.8-107.45 34.98-217.9 142.46-246.69 107.47-28.79 217.94 34.98 246.74 142.43z" clip-path="url(&quot;#a&quot;)" transform="translate(-756 -1084)"/></svg>