<svg xmlns="http://www.w3.org/2000/svg" width="18" height="18" viewBox="0 0 18 18"><defs><clipPath id="a"><path fill="#fff" d="M408.98 3698.93a8.04 8.04 0 1 1 0 16.08 8.04 8.04 0 0 1 0-16.08z"/></clipPath></defs><path fill="#fff" d="M8.98.93a8.04 8.04 0 1 1 0 16.08 8.04 8.04 0 0 1 0-16.08z"/><path fill="none" stroke="#b1cbe7" stroke-linecap="round" stroke-linejoin="round" stroke-miterlimit="50" stroke-width="2" d="M408.98 3698.93a8.04 8.04 0 1 1 0 16.08 8.04 8.04 0 0 1 0-16.08z" clip-path="url(&quot;#a&quot;)" transform="translate(-400 -3698)"/><path fill="#b1cbe7" d="M8 10V5h1v5z"/><path fill="#b1cbe7" d="M12.01 8.99v1h-4v-1z"/></svg>