<svg xmlns="http://www.w3.org/2000/svg" width="21" height="21" viewBox="0 0 22 22"><defs><clipPath id="a"><path fill="transparent" d="M1467.97 987.95a10.03 10.03 0 1 1 0 20.05 10.03 10.03 0 0 1 0-20.05z"/></clipPath></defs><path fill="transparent" d="M10.97.95a10.03 10.03 0 1 1 0 20.05 10.03 10.03 0 0 1 0-20.05z"/><path fill="none" stroke="#121329" stroke-linecap="round" stroke-linejoin="round" stroke-miterlimit="50" stroke-width="2" d="M1467.97 987.95a10.03 10.03 0 1 1 0 20.05 10.03 10.03 0 0 1 0-20.05z" clip-path="url(&quot;#a&quot;)" transform="translate(-1457 -987)"/><path fill="#121329" d="M10 12V6h1v6z"/><path fill="#121329" d="M14.99 11v1H10v-1z"/></svg>