<svg xmlns="http://www.w3.org/2000/svg" width="19" height="23" viewBox="0 0 19 23">
  <path fill="#232c35" d="M18.27 19.77l-5.6-9.71V7.14a.85.85 0 0 0 .31-.65c0-1.08-1.9-1.3-3.48-1.3-1.59 0-3.48.22-3.48 1.3 0 .19.06.43.3.65v2.92l-5.6 9.71c-.42.74-.47 1.51-.13 2.1.34.6 1.03.93 1.88.93h14.06c.86 0 1.54-.34 1.88-.93.34-.59.3-1.35-.14-2.1zm-1.74 2.35H2.47c-1.27 0-1.8-.9-1.16-2l5.7-9.88V6.77c-.2-.09-.31-.18-.31-.28 0-.35 1.25-.63 2.8-.63 1.55 0 2.8.28 2.8.63 0 .1-.12.2-.3.28v3.47l5.69 9.87c.64 1.1.11 2.01-1.16 2.01zM9.18 3.62a.96.96 0 1 0 1.92 0 .96.96 0 0 0-1.92 0zm1.28 0a.32.32 0 1 1-.64-.01.32.32 0 0 1 .64 0zm-3-.5a1.2 1.2 0 1 0 0-2.38 1.2 1.2 0 0 0 0 2.38zm0-1.74a.55.55 0 1 1 0 1.1.55.55 0 0 1 0-1.1zM4.78 15.06s-.04.26.09.41c.02-.1.19-.23.3-.25-.13-.16-.39-.16-.39-.16z"/>
  <path d="M 4 14 l 11 0 l 0 1 -11 0 z" fill="#232c35"></path>
</svg>
