<svg xmlns="http://www.w3.org/2000/svg" width="36" height="32" viewBox="0 0 36 32"><path fill="#ccdb2a" d="M31.77 15.56l4-2.96L32.31.93 14.5 1.5l-1.71 2.67-6.1-1.47L.22 16.01l2.93 2.52-1.55 2.4a3.36 3.36 0 0 0 3.34 5.17 3.33 3.33 0 0 0 3.25 2.46c.16 0 .33-.01.5-.04a3.35 3.35 0 0 0 3.25 2.46c1.1 0 2.2-.54 2.84-1.54l.46-.71 2.7 1.79a3.33 3.33 0 0 0 2.55.47 3.35 3.35 0 0 0 2.66-3.19 3.35 3.35 0 0 0 3.18-3.26 3.35 3.35 0 0 0 3.18-3.26 3.38 3.38 0 0 0 2.25-5.72zm-16-11.81l14.85-.47 2.5 8.43-3.33 2.47-12.73-8.29-3.61 5.48v.01c-.34.51-1.01.65-1.51.32-.5-.32-.65-1-.33-1.5zm-10.4 19.6c-.33.51-1 .65-1.51.33a1.1 1.1 0 0 1-.32-1.51l2.28-3.54c.21-.32.56-.5.92-.5.2 0 .4.06.59.18.24.15.41.4.47.68.06.29.01.58-.15.82zm3.74 2.43c-.32.5-1 .64-1.5.32-.5-.33-.65-1-.32-1.51l2.29-3.54c.2-.32.55-.49.91-.49a1.09 1.09 0 0 1 .91 1.67zm6.04-1.12l-2.28 3.54a1.09 1.09 0 0 1-1.83-1.18l2.29-3.54a1.07 1.07 0 0 1 .91-.5c.2 0 .41.06.59.17.5.33.65 1 .32 1.51zm15.1-6.16a1.09 1.09 0 0 1-1.5.32l-.76-.49-3.54-2.29-1.25 1.93.76.49 2.79 1.8a1.08 1.08 0 0 1-.36 1.97c-.29.06-.58.01-.82-.15l-3.55-2.29-1.24 1.93 2.78 1.79c.5.33.65 1 .33 1.51a1.09 1.09 0 0 1-1.5.32l-3.03-1.95-1.24 1.92 2.26 1.46a1.09 1.09 0 1 1-1.18 1.83l-2.71-1.79.59-.91a3.38 3.38 0 0 0-3.34-5.17 3.33 3.33 0 0 0-1.42-1.92 3.32 3.32 0 0 0-2.33-.5 3.38 3.38 0 0 0-5.47-1.63l-1.46-1.26L7.93 5.36l3.53.85L9.7 8.96a3.38 3.38 0 0 0 5.67 3.67l2.36-3.58L29.93 17a1.08 1.08 0 0 1 .32 1.5z"/></svg>