<svg xmlns="http://www.w3.org/2000/svg" width="12" height="22" viewBox="0 0 12 22"><path fill="#fff" d="M5 4.21c.46-.02.85-.19 1.16-.51a1.58 1.58 0 0 0-.07-2.28A1.58 1.58 0 0 0 4.91.97a1.6 1.6 0 0 0-1.17.51c-.31.33-.47.71-.47 1.15 0 .44.17.82.52 1.13.34.31.74.46 1.2.45zm6.02 5.98a.77.77 0 0 1-.76.77c-.06 0-.18-.03-.36-.08L7.26 9.47a.88.88 0 0 1-.23-.21l-.76-1.15-.31 2.85 2.69 8.74c0 .03 0 .06.02.1l.02.11a1.11 1.11 0 0 1-1.12 1.11c-.54.03-.91-.21-1.12-.73l-1.93-6.3-.22 1.92a.4.4 0 0 1-.04.17 1.56 1.56 0 0 0-.14.34l-1.88 4c-.2.4-.54.6-.99.6-.32.03-.6-.07-.82-.28a1.03 1.03 0 0 1-.34-.79c0-.14.03-.29.09-.47l1.75-3.7.98-7.84-1.07 1.02-.32 2.81a.9.9 0 0 1-.24.47.68.68 0 0 1-.52.21.76.76 0 0 1-.54-.21.67.67 0 0 1-.22-.51v-.09l.4-3.28a.88.88 0 0 1 .18-.38l3.05-2.94a1.7 1.7 0 0 1 1.12-.47c.57 0 1.04.23 1.43.68L8.2 8.32l2.46 1.28c.24.14.36.34.36.59z"/></svg>