<svg xmlns="http://www.w3.org/2000/svg" width="20" height="24" viewBox="0 0 20 24"><path fill="#0b1c2b" d="M19.04 12.92c0-4.33-2.33-6.16-6.3-7.01-.1-.39-.37-.92-.68-1.17L13 2.53a1.28 1.28 0 0 0-.77-1.64L9.82.25C9.66.2 9.51.17 9.36.17c-.52 0-1.01.08-1.2.61L2.91 13.41a1.28 1.28 0 0 0 .76 1.64l2.41.88a1.28 1.28 0 0 0 1.64-.76l3.1-7.03h.02c.78 0 1.45-.46 1.75-1.13 3.53.47 5.41 2.25 5.41 5.91 0 3.92-2.28 6.98-6.18 7.08h-.01l-.18.01H1.55c-.24 0-.47.28-.58.5l-.89 2.56c-.1.2-.09.44.03.63.12.18.32.3.54.3h11.9c.23 0 .43-.12.55-.3a.65.65 0 0 0 .03-.63l-.28-2.2c3.75-.5 6.2-3.65 6.2-7.95zm-8.2-6.06a.64.64 0 0 1-.64-.64c0-.35.29-.64.64-.64.36 0 .64.29.64.64 0 .35-.28.64-.64.64zm.02-2.56h-.02c-1.06 0-1.92.86-1.92 1.92 0 .6.47 1.27.9 1.62l-3.3 7.03-2.7-.97L9.18 1.17l2.6.92zM1.3 22.96L1.94 21h9.76l.35 1.96z"/></svg>