<svg xmlns="http://www.w3.org/2000/svg" width="15" height="15" viewBox="0 0 15 15"><path fill="#4e5b67" d="M8.78.96h5.06c.11 0 .2.1.2.2v4.95c0 .18 0 .48-.04.55l-7.41 7.4L.94 8.4 8.33 1c.07-.04.34-.04.45-.04.11 0 0 0 0 0zm.01-.94c-.32 0-.8 0-1.12.32L.28 7.74a.93.93 0 0 0 0 1.33l5.65 5.65a.95.95 0 0 0 1.33 0l7.4-7.4c.32-.31.32-.77.31-1.2V1.15c0-.62-.51-1.14-1.13-1.14zm.57 3.75a1.87 1.87 0 1 0 3.74 0 1.87 1.87 0 0 0-3.74 0zm1.87-.94a.94.94 0 1 1 0 1.87.93.93 0 0 1-.93-.93c0-.52.41-.94.93-.94z"/></svg>