<svg xmlns="http://www.w3.org/2000/svg" width="19" height="19" viewBox="0 0 19 19"><path fill="#acc8e6" d="M9 1.57c1.8 0 3.88 1.52 3.88 2.65v2.65c0 1.03-.59 2.98-1.73 3.88-.29.23-.44.6-.4.96.05.37.28.69.61.84l5.15 2.2c.03 0 .44.08.44.65v1.55H1.05v-1.6c0-.42.31-.55.44-.61l5.18-2.2c.34-.16.57-.47.61-.84.05-.36-.1-.72-.39-.95a5.93 5.93 0 0 1-1.82-3.88V4.22C5.07 3.1 7.21 1.57 9 1.57zM4.01 4.22v2.65c0 1.16.73 3.51 2.22 4.7l-5.18 2.2s-1.03.48-1.03 1.07v2.11c0 .59.44 1.06 1.03 1.06h15.9c.59 0 1.06-.47 1.06-1.06v-2.11c0-.63-1.06-1.06-1.06-1.06l-5.14-2.2c1.47-1.15 2.13-3.43 2.13-4.7V4.21C13.94 2.46 11.34.5 9 .5 6.65.5 4.01 2.46 4.01 4.22z"/></svg>