<svg xmlns="http://www.w3.org/2000/svg" width="14" height="18" viewBox="0 0 14 18"><path fill="#acc8e6" d="M7.07 1.71c3.55 0 5.14 2.66 5.14 5.3 0 2.33-1.66 5.42-4.94 9.19l-.06.05-.07-.05-.28-.32c-2.13-2.45-5.05-5.8-5.05-8.87 0-2.87 2.4-5.3 5.26-5.3 2.85 0 0 0 0 0zm-6.3 5.3c0 3.61 3.34 7.29 5.6 9.88 0 .01.37.42.82.42h.04c.44 0 .8-.41.81-.42 2.12-2.43 5.2-6.43 5.2-9.88C13.25 3.57 11 .67 7.08.67a6.4 6.4 0 0 0-6.3 6.34zM7 4.83c1.15 0 2.08.94 2.08 2.08 0 1.15-.9 2.11-2.06 2.11-1.14 0-2.1-.96-2.1-2.11 0-1.14.93-2.08 2.08-2.08zM3.9 6.94a3.12 3.12 0 1 0 6.25 0 3.12 3.12 0 0 0-6.25 0z"/></svg>