<svg xmlns="http://www.w3.org/2000/svg" width="20" height="20" viewBox="0 0 20 20"><path fill="#2c3640" d="M17.5 16.93l1.14-1.14a.4.4 0 0 0 0-.57L9.23 5.8l1.71-1.7a.39.39 0 0 0 .12-.3c0-.1-.04-.2-.12-.28L9.66 2.24a2.22 2.22 0 0 0-3.14 0l-.43.43-1.14-1.14a2.03 2.03 0 0 0-2.86 0l-.56.56a2.02 2.02 0 0 0 0 2.86l1.14 1.14-.43.43a2.21 2.21 0 0 0 0 3.14l1.28 1.28c.08.08.18.12.29.12.11 0 .21-.04.28-.12l1.72-1.71 9.41 9.41c.08.08.18.12.29.12a.4.4 0 0 0 .28-.12l1.14-1.14 2 2 .57-.57zM2.1 4.38a1.22 1.22 0 0 1 0-1.72l.56-.56a1.22 1.22 0 0 1 1.72 0l1.14 1.14-2.28 2.28zm1.71 5.7l-1-1a1.41 1.41 0 0 1 0-2l.71-.7 2.86-2.86.71-.71a1.41 1.41 0 0 1 2 0l1 1zm11.7 7.7L6.38 8.67l2.28-2.28 9.13 9.13z"/></svg>