<svg xmlns="http://www.w3.org/2000/svg" width="24" height="21" viewBox="0 0 24 21"><path fill="#0b1c2b" d="M21.63.95H2.37C1.6.95.99 1.56.99 2.31v12.28c0 .75.62 1.36 1.38 1.36h2.65v3.39c0 .28.26.52.51.63a.72.72 0 0 0 .75-.14l3.52-3.88h11.83c.76 0 1.38-.61 1.38-1.36V2.31c0-.75-.62-1.36-1.38-1.36zm.34 14.02H9.23l-3.25 3.67.04-3.67H2.03v-13h19.94zM5.12 8.51c0 .28.3.51.69.51h12.38c.38 0 .69-.23.69-.51 0-.29-.3-.51-.69-.51H5.81c-.38 0-.7.22-.7.51zm0-2.99c0 .25.3.45.69.45h12.38c.38 0 .69-.2.69-.45s-.3-.46-.69-.46H5.81c-.38 0-.7.21-.7.46zm0 5.98c0 .29.3.54.69.54h8.25c.38 0 .7-.25.7-.54 0-.3-.32-.55-.7-.55H5.81c-.38 0-.7.25-.7.55z"/></svg>